<svg xmlns="http://www.w3.org/2000/svg" xmlns:xlink="http://www.w3.org/1999/xlink" width="335" height="81.5" viewBox="0 0 335 81.5">
  <defs>
    <filter id="Line_3" x="124" y="12.5" width="19" height="33" filterUnits="userSpaceOnUse">
      <feOffset dy="3" input="SourceAlpha"/>
      <feGaussianBlur stdDeviation="3" result="blur"/>
      <feFlood flood-opacity="0.161"/>
      <feComposite operator="in" in2="blur"/>
      <feComposite in="SourceGraphic"/>
    </filter>
    <filter id="Line_4" x="179" y="12.5" width="19" height="33" filterUnits="userSpaceOnUse">
      <feOffset dy="3" input="SourceAlpha"/>
      <feGaussianBlur stdDeviation="3" result="blur-2"/>
      <feFlood flood-opacity="0.161"/>
      <feComposite operator="in" in2="blur-2"/>
      <feComposite in="SourceGraphic"/>
    </filter>
    <linearGradient id="linear-gradient" x1="0.5" x2="0.5" y2="1" gradientUnits="objectBoundingBox">
      <stop offset="0" stop-color="#5ba2ff"/>
      <stop offset="1" stop-color="#4077c1"/>
    </linearGradient>
    <filter id="Polygon_2" x="128" y="5" width="34" height="32" filterUnits="userSpaceOnUse">
      <feOffset dx="3" dy="3" input="SourceAlpha"/>
      <feGaussianBlur stdDeviation="3" result="blur-3"/>
      <feFlood flood-opacity="0.161"/>
      <feComposite operator="in" in2="blur-3"/>
      <feComposite in="SourceGraphic"/>
    </filter>
    <filter id="Polygon_3" x="166" y="5" width="34" height="32" filterUnits="userSpaceOnUse">
      <feOffset dx="3" dy="3" input="SourceAlpha"/>
      <feGaussianBlur stdDeviation="3" result="blur-4"/>
      <feFlood flood-opacity="0.161"/>
      <feComposite operator="in" in2="blur-4"/>
      <feComposite in="SourceGraphic"/>
    </filter>
    <filter id="Ellipse_3" x="147" y="9" width="34" height="34" filterUnits="userSpaceOnUse">
      <feOffset dx="3" dy="3" input="SourceAlpha"/>
      <feGaussianBlur stdDeviation="3" result="blur-5"/>
      <feFlood flood-opacity="0.161"/>
      <feComposite operator="in" in2="blur-5"/>
      <feComposite in="SourceGraphic"/>
    </filter>
    <filter id="Ellipse_2" x="184" y="10" width="34" height="34" filterUnits="userSpaceOnUse">
      <feOffset dx="3" dy="3" input="SourceAlpha"/>
      <feGaussianBlur stdDeviation="3" result="blur-6"/>
      <feFlood flood-opacity="0.161"/>
      <feComposite operator="in" in2="blur-6"/>
      <feComposite in="SourceGraphic"/>
    </filter>
    <filter id="Ellipse_4" x="110" y="10" width="34" height="34" filterUnits="userSpaceOnUse">
      <feOffset dx="3" dy="3" input="SourceAlpha"/>
      <feGaussianBlur stdDeviation="3" result="blur-7"/>
      <feFlood flood-opacity="0.161"/>
      <feComposite operator="in" in2="blur-7"/>
      <feComposite in="SourceGraphic"/>
    </filter>
    <filter id="Polygon_1" x="0" y="0" width="49" height="45" filterUnits="userSpaceOnUse">
      <feOffset dx="3" dy="3" input="SourceAlpha"/>
      <feGaussianBlur stdDeviation="3" result="blur-8"/>
      <feFlood flood-opacity="0.161"/>
      <feComposite operator="in" in2="blur-8"/>
      <feComposite in="SourceGraphic"/>
    </filter>
    <filter id="Ellipse_1" x="288" y="7" width="47" height="47" filterUnits="userSpaceOnUse">
      <feOffset dx="3" dy="3" input="SourceAlpha"/>
      <feGaussianBlur stdDeviation="3" result="blur-9"/>
      <feFlood flood-opacity="0.161"/>
      <feComposite operator="in" in2="blur-9"/>
      <feComposite in="SourceGraphic"/>
    </filter>
    <filter id="Line_1" x="11.5" y="61.5" width="168" height="20" filterUnits="userSpaceOnUse">
      <feOffset dx="3" dy="3" input="SourceAlpha"/>
      <feGaussianBlur stdDeviation="3" result="blur-10"/>
      <feFlood flood-opacity="0.161"/>
      <feComposite operator="in" in2="blur-10"/>
      <feComposite in="SourceGraphic"/>
    </filter>
    <filter id="Line_2" x="161.5" y="61.5" width="169" height="20" filterUnits="userSpaceOnUse">
      <feOffset dx="3" dy="3" input="SourceAlpha"/>
      <feGaussianBlur stdDeviation="3" result="blur-11"/>
      <feFlood flood-opacity="0.161"/>
      <feComposite operator="in" in2="blur-11"/>
      <feComposite in="SourceGraphic"/>
    </filter>
    <linearGradient id="linear-gradient-8" x1="0.5" x2="0.5" y2="1" gradientUnits="objectBoundingBox">
      <stop offset="0" stop-color="#5ba2ff"/>
      <stop offset="1" stop-color="#072b5b"/>
    </linearGradient>
    <filter id="Rectangle_1" x="111" y="17" width="108" height="36" filterUnits="userSpaceOnUse">
      <feOffset dx="4" dy="3" input="SourceAlpha"/>
      <feGaussianBlur stdDeviation="3" result="blur-12"/>
      <feFlood flood-opacity="0.161"/>
      <feComposite operator="in" in2="blur-12"/>
      <feComposite in="SourceGraphic"/>
    </filter>
    <filter id="Rahmat_Subandi" x="11" y="10" width="319" height="70" filterUnits="userSpaceOnUse">
      <feOffset dx="3" dy="3" input="SourceAlpha"/>
      <feGaussianBlur stdDeviation="3" result="blur-13"/>
      <feFlood flood-opacity="0.161"/>
      <feComposite operator="in" in2="blur-13"/>
      <feComposite in="SourceGraphic"/>
    </filter>
  </defs>
  <g id="logo" transform="translate(-573 -325)">
    <g transform="matrix(1, 0, 0, 1, 573, 325)" filter="url(#Line_3)">
      <line id="Line_3-2" data-name="Line 3" y1="15" transform="translate(133.5 18.5)" fill="none" stroke="#338d5a" stroke-width="1"/>
    </g>
    <circle id="Ellipse_5" data-name="Ellipse 5" cx="2.5" cy="2.5" r="2.5" transform="translate(704 341)" fill="#0b8f4d"/>
    <g transform="matrix(1, 0, 0, 1, 573, 325)" filter="url(#Line_4)">
      <line id="Line_4-2" data-name="Line 4" y1="15" transform="translate(188.5 18.5)" fill="none" stroke="#338d5a" stroke-width="1"/>
    </g>
    <circle id="Ellipse_6" data-name="Ellipse 6" cx="2.5" cy="2.5" r="2.5" transform="translate(759 341)" fill="#0b8f4d"/>
    <g transform="matrix(1, 0, 0, 1, 573, 325)" filter="url(#Polygon_2)">
      <path id="Polygon_2-2" data-name="Polygon 2" d="M6.264,3.039a2,2,0,0,1,3.473,0l4.554,7.969A2,2,0,0,1,12.554,14H3.446A2,2,0,0,1,1.71,11.008Z" transform="translate(134 11)" fill="url(#linear-gradient)"/>
    </g>
    <g transform="matrix(1, 0, 0, 1, 573, 325)" filter="url(#Polygon_3)">
      <path id="Polygon_3-2" data-name="Polygon 3" d="M6.264,3.039a2,2,0,0,1,3.473,0l4.554,7.969A2,2,0,0,1,12.554,14H3.446A2,2,0,0,1,1.71,11.008Z" transform="translate(172 11)" fill="url(#linear-gradient)"/>
    </g>
    <g transform="matrix(1, 0, 0, 1, 573, 325)" filter="url(#Ellipse_3)">
      <circle id="Ellipse_3-2" data-name="Ellipse 3" cx="8" cy="8" r="8" transform="translate(153 15)" fill="url(#linear-gradient)"/>
    </g>
    <g transform="matrix(1, 0, 0, 1, 573, 325)" filter="url(#Ellipse_2)">
      <circle id="Ellipse_2-2" data-name="Ellipse 2" cx="8" cy="8" r="8" transform="translate(190 16)" fill="url(#linear-gradient)"/>
    </g>
    <g transform="matrix(1, 0, 0, 1, 573, 325)" filter="url(#Ellipse_4)">
      <circle id="Ellipse_4-2" data-name="Ellipse 4" cx="8" cy="8" r="8" transform="translate(116 16)" fill="url(#linear-gradient)"/>
    </g>
    <g transform="matrix(1, 0, 0, 1, 573, 325)" filter="url(#Polygon_1)">
      <path id="Polygon_1-2" data-name="Polygon 1" d="M13.765,3.021a2,2,0,0,1,3.469,0L29.28,24a2,2,0,0,1-1.735,3H3.454A2,2,0,0,1,1.72,24Z" transform="translate(6 6)" fill="url(#linear-gradient)"/>
    </g>
    <g transform="matrix(1, 0, 0, 1, 573, 325)" filter="url(#Ellipse_1)">
      <circle id="Ellipse_1-2" data-name="Ellipse 1" cx="14.5" cy="14.5" r="14.5" transform="translate(294 13)" fill="url(#linear-gradient)"/>
    </g>
    <g transform="matrix(1, 0, 0, 1, 573, 325)" filter="url(#Line_1)">
      <line id="Line_1-2" data-name="Line 1" x2="150" transform="translate(17.5 68.5)" fill="none" stroke="#5ba2ff" stroke-width="2"/>
    </g>
    <g transform="matrix(1, 0, 0, 1, 573, 325)" filter="url(#Line_2)">
      <line id="Line_2-2" data-name="Line 2" x2="151" transform="translate(167.5 68.5)" fill="none" stroke="#4077c1" stroke-width="2"/>
    </g>
    <g transform="matrix(1, 0, 0, 1, 573, 325)" filter="url(#Rectangle_1)">
      <rect id="Rectangle_1-2" data-name="Rectangle 1" width="90" height="18" transform="translate(116 23)" fill="url(#linear-gradient-8)"/>
    </g>
    <g transform="matrix(1, 0, 0, 1, 573, 325)" filter="url(#Rahmat_Subandi)">
      <text id="Rahmat_Subandi-2" data-name="Rahmat Subandi" transform="translate(18 57)" fill="#26282a" font-size="45" font-family="CalistoMT-Italic, Calisto MT" font-style="italic"><tspan x="0" y="0">Rahmat Subandi</tspan></text>
    </g>
  </g>
</svg>
